<mxfile host="app.diagrams.net" modified="2024-06-04T17:32:06.547Z" agent="Mozilla/5.0 (Windows NT 10.0; Win64; x64) AppleWebKit/537.36 (KHTML, like Gecko) Chrome/125.0.0.0 Safari/537.36" etag="TdXeRxBNJcB1rsr2fTL1" version="24.4.13" type="github">
  <diagram name="Page-1" id="Xk6uZc-DwtngcNXFkcQP">
    <mxGraphModel dx="1050" dy="569" grid="1" gridSize="10" guides="1" tooltips="1" connect="1" arrows="1" fold="1" page="1" pageScale="1" pageWidth="827" pageHeight="1169" math="0" shadow="0">
      <root>
        <mxCell id="0" />
        <mxCell id="1" parent="0" />
        <mxCell id="KWXjaIaTfDzoAoI0r065-7" style="edgeStyle=orthogonalEdgeStyle;rounded=0;orthogonalLoop=1;jettySize=auto;html=1;entryX=0.5;entryY=0;entryDx=0;entryDy=0;" edge="1" parent="1" source="KWXjaIaTfDzoAoI0r065-1" target="KWXjaIaTfDzoAoI0r065-3">
          <mxGeometry relative="1" as="geometry" />
        </mxCell>
        <mxCell id="KWXjaIaTfDzoAoI0r065-8" value="" style="edgeStyle=orthogonalEdgeStyle;rounded=0;orthogonalLoop=1;jettySize=auto;html=1;" edge="1" parent="1" source="KWXjaIaTfDzoAoI0r065-1" target="KWXjaIaTfDzoAoI0r065-2">
          <mxGeometry relative="1" as="geometry" />
        </mxCell>
        <mxCell id="KWXjaIaTfDzoAoI0r065-9" style="edgeStyle=orthogonalEdgeStyle;rounded=0;orthogonalLoop=1;jettySize=auto;html=1;entryX=0.5;entryY=0;entryDx=0;entryDy=0;" edge="1" parent="1" source="KWXjaIaTfDzoAoI0r065-1" target="KWXjaIaTfDzoAoI0r065-4">
          <mxGeometry relative="1" as="geometry">
            <mxPoint x="590" y="110" as="targetPoint" />
          </mxGeometry>
        </mxCell>
        <mxCell id="KWXjaIaTfDzoAoI0r065-1" value="Start" style="ellipse;whiteSpace=wrap;html=1;aspect=fixed;" vertex="1" parent="1">
          <mxGeometry x="374" y="50" width="80" height="80" as="geometry" />
        </mxCell>
        <mxCell id="KWXjaIaTfDzoAoI0r065-2" value="Do you like puns ?" style="rounded=0;whiteSpace=wrap;html=1;" vertex="1" parent="1">
          <mxGeometry x="354" y="160" width="120" height="60" as="geometry" />
        </mxCell>
        <mxCell id="KWXjaIaTfDzoAoI0r065-3" value="That&#39;s pUnfortunate." style="rounded=0;whiteSpace=wrap;html=1;" vertex="1" parent="1">
          <mxGeometry x="160" y="260" width="120" height="60" as="geometry" />
        </mxCell>
        <mxCell id="KWXjaIaTfDzoAoI0r065-10" style="edgeStyle=orthogonalEdgeStyle;rounded=0;orthogonalLoop=1;jettySize=auto;html=1;entryX=0.5;entryY=0;entryDx=0;entryDy=0;" edge="1" parent="1" source="KWXjaIaTfDzoAoI0r065-4" target="KWXjaIaTfDzoAoI0r065-6">
          <mxGeometry relative="1" as="geometry" />
        </mxCell>
        <mxCell id="KWXjaIaTfDzoAoI0r065-11" style="edgeStyle=orthogonalEdgeStyle;rounded=0;orthogonalLoop=1;jettySize=auto;html=1;entryX=0.5;entryY=0;entryDx=0;entryDy=0;" edge="1" parent="1" source="KWXjaIaTfDzoAoI0r065-14" target="KWXjaIaTfDzoAoI0r065-5">
          <mxGeometry relative="1" as="geometry">
            <Array as="points">
              <mxPoint x="740" y="290" />
            </Array>
          </mxGeometry>
        </mxCell>
        <mxCell id="KWXjaIaTfDzoAoI0r065-4" value="Do you like computers more than books?" style="rounded=0;whiteSpace=wrap;html=1;" vertex="1" parent="1">
          <mxGeometry x="560" y="260" width="120" height="60" as="geometry" />
        </mxCell>
        <mxCell id="KWXjaIaTfDzoAoI0r065-5" value="You will be glad to C this pun, then." style="rounded=0;whiteSpace=wrap;html=1;" vertex="1" parent="1">
          <mxGeometry x="680" y="410" width="120" height="60" as="geometry" />
        </mxCell>
        <mxCell id="KWXjaIaTfDzoAoI0r065-6" value="I hope the police book you for saying that." style="rounded=0;whiteSpace=wrap;html=1;" vertex="1" parent="1">
          <mxGeometry x="430" y="410" width="120" height="60" as="geometry" />
        </mxCell>
        <mxCell id="KWXjaIaTfDzoAoI0r065-12" value="Yes" style="text;html=1;align=center;verticalAlign=middle;resizable=0;points=[];autosize=1;strokeColor=none;fillColor=none;" vertex="1" parent="1">
          <mxGeometry x="600" y="150" width="40" height="30" as="geometry" />
        </mxCell>
        <mxCell id="KWXjaIaTfDzoAoI0r065-13" value="No" style="text;html=1;align=center;verticalAlign=middle;resizable=0;points=[];autosize=1;strokeColor=none;fillColor=none;" vertex="1" parent="1">
          <mxGeometry x="200" y="150" width="40" height="30" as="geometry" />
        </mxCell>
        <mxCell id="KWXjaIaTfDzoAoI0r065-15" value="" style="edgeStyle=orthogonalEdgeStyle;rounded=0;orthogonalLoop=1;jettySize=auto;html=1;entryX=0.5;entryY=0;entryDx=0;entryDy=0;" edge="1" parent="1" source="KWXjaIaTfDzoAoI0r065-4" target="KWXjaIaTfDzoAoI0r065-14">
          <mxGeometry relative="1" as="geometry">
            <mxPoint x="680" y="290" as="sourcePoint" />
            <mxPoint x="740" y="410" as="targetPoint" />
            <Array as="points" />
          </mxGeometry>
        </mxCell>
        <mxCell id="KWXjaIaTfDzoAoI0r065-14" value="Yes" style="text;html=1;align=center;verticalAlign=middle;resizable=0;points=[];autosize=1;strokeColor=none;fillColor=none;" vertex="1" parent="1">
          <mxGeometry x="720" y="320" width="40" height="30" as="geometry" />
        </mxCell>
        <mxCell id="KWXjaIaTfDzoAoI0r065-17" value="No" style="text;html=1;align=center;verticalAlign=middle;resizable=0;points=[];autosize=1;strokeColor=none;fillColor=none;" vertex="1" parent="1">
          <mxGeometry x="474" y="320" width="40" height="30" as="geometry" />
        </mxCell>
      </root>
    </mxGraphModel>
  </diagram>
</mxfile>
